G04 #@! TF.FileFunction,Copper,L2,Bot,Signal*
%FSLAX46Y46*%
G04 Gerber Fmt 4.6, Leading zero omitted, Abs format (unit mm)*
G04 Created by KiCad (PCBNEW (2015-01-16 BZR 5376)-product) date 9/24/2015 9:19:19 AM*
%MOMM*%
G01*
G04 APERTURE LIST*
%ADD10C,0.100000*%
%ADD11R,2.032000X2.032000*%
%ADD12O,2.032000X2.032000*%
%ADD13O,0.950000X1.250000*%
%ADD14C,2.000000*%
%ADD15R,3.000000X1.200000*%
%ADD16C,1.422400*%
%ADD17C,1.000000*%
%ADD18C,0.508000*%
%ADD19C,0.635000*%
%ADD20C,0.381000*%
%ADD21C,0.457200*%
%ADD22C,0.254000*%
G04 APERTURE END LIST*
D10*
X110000000Y-86000000D02*
X153000000Y-86000000D01*
X106000000Y-90000000D02*
X106000000Y-102000000D01*
X110000000Y-106000000D02*
X153000000Y-106000000D01*
X106000000Y-102000000D02*
G75*
G03X110000000Y-106000000I4000000J0D01*
G01*
X110000000Y-86000000D02*
G75*
G03X106000000Y-90000000I0J-4000000D01*
G01*
X153000000Y-106000000D02*
X153000000Y-86000000D01*
D11*
X148336000Y-88138000D03*
D12*
X150876000Y-88138000D03*
D11*
X148209000Y-104267000D03*
D12*
X150749000Y-104267000D03*
D13*
X111500000Y-93800000D03*
X111500000Y-98800000D03*
D14*
X143000000Y-88500000D03*
X143000000Y-103500000D03*
X109500000Y-103500000D03*
X109500000Y-88500000D03*
D15*
X150622000Y-91186000D03*
X150622000Y-93726000D03*
X150622000Y-96266000D03*
X150622000Y-98806000D03*
X150622000Y-101346000D03*
D16*
X124460000Y-94234000D03*
X124460000Y-99314000D03*
D17*
X119761000Y-93091000D03*
X128524000Y-99060000D03*
X125984000Y-102235000D03*
X139954000Y-91440000D03*
X113538000Y-92964000D03*
X122428000Y-86868000D03*
X120904000Y-101854000D03*
X134493000Y-99187000D03*
X132461000Y-104140000D03*
X137668000Y-96647000D03*
X147574000Y-91186000D03*
X111633000Y-90932000D03*
X113538000Y-100203000D03*
X134112000Y-93980000D03*
X138811000Y-102362000D03*
X120650000Y-96520000D03*
X134874000Y-97536000D03*
X122301000Y-93345000D03*
X125095000Y-92456000D03*
X131826000Y-95504000D03*
X134874000Y-96139000D03*
X141732000Y-100711000D03*
X144526000Y-97282000D03*
X146685000Y-92202000D03*
X146431000Y-100965000D03*
X144272000Y-95758000D03*
X131699000Y-90297000D03*
X127635000Y-91059000D03*
X129032000Y-89281000D03*
X126492000Y-92202000D03*
X133604000Y-86995000D03*
D18*
X119761000Y-93091000D02*
X118237000Y-94615000D01*
X118237000Y-94615000D02*
X112315000Y-94615000D01*
X112315000Y-94615000D02*
X111500000Y-93800000D01*
D19*
X150622000Y-98806000D02*
X150622000Y-101346000D01*
D18*
X128524000Y-99060000D02*
X125984000Y-101600000D01*
X125984000Y-101600000D02*
X125984000Y-102235000D01*
X150622000Y-98806000D02*
X149606000Y-98806000D01*
X141859000Y-93345000D02*
X139954000Y-91440000D01*
X147574000Y-96774000D02*
X147574000Y-96139000D01*
X147574000Y-96139000D02*
X146050000Y-94615000D01*
X146050000Y-94615000D02*
X143129000Y-94615000D01*
X143129000Y-94615000D02*
X141859000Y-93345000D01*
X149606000Y-98806000D02*
X147574000Y-96774000D01*
X150622000Y-104140000D02*
X150749000Y-104267000D01*
X150622000Y-101346000D02*
X150622000Y-104140000D01*
X150749000Y-101473000D02*
X150622000Y-101346000D01*
X150749000Y-104267000D02*
X150749000Y-101473000D01*
X113792000Y-92710000D02*
X113538000Y-92964000D01*
X116586000Y-92710000D02*
X114681000Y-92710000D01*
X122428000Y-86868000D02*
X116586000Y-92710000D01*
X114681000Y-92710000D02*
X113792000Y-92710000D01*
D19*
X121158000Y-93980000D02*
X121158000Y-88138000D01*
X118491000Y-96647000D02*
X121158000Y-93980000D01*
X118491000Y-99441000D02*
X118491000Y-96647000D01*
X120904000Y-101854000D02*
X118491000Y-99441000D01*
X121158000Y-88138000D02*
X122428000Y-86868000D01*
D18*
X120904000Y-99568000D02*
X120904000Y-101854000D01*
X122809000Y-97663000D02*
X120904000Y-99568000D01*
X129286000Y-97663000D02*
X122809000Y-97663000D01*
X130937000Y-99187000D02*
X129413000Y-97663000D01*
X129413000Y-97663000D02*
X129286000Y-97663000D01*
X134493000Y-99187000D02*
X130937000Y-99187000D01*
X134493000Y-99187000D02*
X135128000Y-99187000D01*
X135128000Y-99187000D02*
X137668000Y-96647000D01*
X123190000Y-104140000D02*
X120904000Y-101854000D01*
X132461000Y-104140000D02*
X123190000Y-104140000D01*
D20*
X150622000Y-91186000D02*
X147574000Y-91186000D01*
D18*
X111633000Y-90932000D02*
X110617000Y-90932000D01*
X113538000Y-100203000D02*
X113538000Y-100330000D01*
X109728000Y-91821000D02*
X110617000Y-90932000D01*
X109728000Y-100076000D02*
X109728000Y-91821000D01*
X110617000Y-100965000D02*
X109728000Y-100076000D01*
X112903000Y-100965000D02*
X110617000Y-100965000D01*
X113538000Y-100330000D02*
X112903000Y-100965000D01*
D21*
X138938000Y-95504000D02*
X138938000Y-102235000D01*
D18*
X134112000Y-93980000D02*
X137414000Y-93980000D01*
X137414000Y-93980000D02*
X138938000Y-95504000D01*
D21*
X138938000Y-102235000D02*
X138811000Y-102362000D01*
D18*
X130048000Y-96520000D02*
X120650000Y-96520000D01*
X134112000Y-97536000D02*
X133731000Y-97917000D01*
X133731000Y-97917000D02*
X131445000Y-97917000D01*
X131445000Y-97917000D02*
X130048000Y-96520000D01*
X134874000Y-97536000D02*
X134112000Y-97536000D01*
D21*
X122301000Y-93345000D02*
X123063000Y-92583000D01*
D18*
X123063000Y-92583000D02*
X122301000Y-93345000D01*
X124968000Y-92583000D02*
X123063000Y-92583000D01*
X125095000Y-92456000D02*
X124968000Y-92583000D01*
X132461000Y-96139000D02*
X131826000Y-95504000D01*
X134874000Y-96139000D02*
X132461000Y-96139000D01*
D21*
X144526000Y-97917000D02*
X144526000Y-97282000D01*
X141732000Y-100711000D02*
X144526000Y-97917000D01*
D20*
X150114000Y-89916000D02*
X146685000Y-89916000D01*
X145986500Y-90614500D02*
X146685000Y-89916000D01*
X150876000Y-89154000D02*
X150114000Y-89916000D01*
X150876000Y-88138000D02*
X150876000Y-89154000D01*
X145986500Y-91186000D02*
X145986500Y-90614500D01*
X145986500Y-91376500D02*
X145986500Y-91186000D01*
X146685000Y-92202000D02*
X145986500Y-91503500D01*
X145986500Y-91503500D02*
X145986500Y-91249500D01*
D21*
X146113500Y-100647500D02*
X146113500Y-97091500D01*
X146431000Y-100965000D02*
X146113500Y-100647500D01*
D18*
X146113500Y-96583500D02*
X145288000Y-95758000D01*
X145288000Y-95758000D02*
X144272000Y-95758000D01*
X146113500Y-97028000D02*
X146113500Y-96583500D01*
D20*
X140081000Y-103251000D02*
X140081000Y-103632000D01*
X146304000Y-104267000D02*
X148209000Y-104267000D01*
X145288000Y-105283000D02*
X146304000Y-104267000D01*
X141732000Y-105283000D02*
X145288000Y-105283000D01*
X140081000Y-103632000D02*
X141732000Y-105283000D01*
D18*
X131699000Y-90297000D02*
X132518686Y-91116686D01*
X132518686Y-91116686D02*
X137217686Y-91116686D01*
X137217686Y-91116686D02*
X140081000Y-93980000D01*
X147701000Y-103759000D02*
X148209000Y-104267000D01*
X140081000Y-93980000D02*
X140081000Y-103251000D01*
X140081000Y-103251000D02*
X140081000Y-103378000D01*
X146939000Y-93853000D02*
X144018000Y-93853000D01*
X144018000Y-93853000D02*
X142875000Y-92710000D01*
X149352000Y-96266000D02*
X150622000Y-96266000D01*
X146939000Y-93853000D02*
X149352000Y-96266000D01*
X138938000Y-88773000D02*
X142875000Y-92710000D01*
X131699000Y-88773000D02*
X138938000Y-88773000D01*
X129413000Y-91059000D02*
X131699000Y-88773000D01*
X127635000Y-91059000D02*
X129413000Y-91059000D01*
X126492000Y-89916000D02*
X127127000Y-89281000D01*
X127127000Y-89281000D02*
X129032000Y-89281000D01*
X126492000Y-92202000D02*
X126492000Y-89916000D01*
X150622000Y-93726000D02*
X149479000Y-93726000D01*
X148844000Y-93091000D02*
X149479000Y-93726000D01*
X144526000Y-93091000D02*
X138430000Y-86995000D01*
X138430000Y-86995000D02*
X133604000Y-86995000D01*
D20*
X144526000Y-93091000D02*
X148844000Y-93091000D01*
D22*
G36*
X140596566Y-105315000D02*
X114673197Y-105315000D01*
X114673197Y-99978225D01*
X114500767Y-99560914D01*
X114181765Y-99241355D01*
X113764756Y-99068197D01*
X113313225Y-99067803D01*
X112895914Y-99240233D01*
X112601229Y-99534404D01*
X112601229Y-99101131D01*
X112601229Y-98498869D01*
X112601229Y-94101131D01*
X112452563Y-93927000D01*
X111627000Y-93927000D01*
X111627000Y-94892734D01*
X111797938Y-95019268D01*
X112171821Y-94835552D01*
X112459568Y-94511049D01*
X112601229Y-94101131D01*
X112601229Y-98498869D01*
X112459568Y-98088951D01*
X112171821Y-97764448D01*
X111797938Y-97580732D01*
X111627000Y-97707266D01*
X111627000Y-98673000D01*
X112452563Y-98673000D01*
X112601229Y-98498869D01*
X112601229Y-99101131D01*
X112452563Y-98927000D01*
X111627000Y-98927000D01*
X111627000Y-99892734D01*
X111797938Y-100019268D01*
X112171821Y-99835552D01*
X112459568Y-99511049D01*
X112601229Y-99101131D01*
X112601229Y-99534404D01*
X112576355Y-99559235D01*
X112403197Y-99976244D01*
X112403109Y-100076000D01*
X110985236Y-100076000D01*
X110617000Y-99707764D01*
X110617000Y-99597397D01*
X110828179Y-99835552D01*
X111202062Y-100019268D01*
X111373000Y-99892734D01*
X111373000Y-98927000D01*
X111353000Y-98927000D01*
X111353000Y-98673000D01*
X111373000Y-98673000D01*
X111373000Y-97707266D01*
X111202062Y-97580732D01*
X110828179Y-97764448D01*
X110617000Y-98002602D01*
X110617000Y-94597397D01*
X110828179Y-94835552D01*
X111202062Y-95019268D01*
X111373000Y-94892734D01*
X111373000Y-93927000D01*
X111353000Y-93927000D01*
X111353000Y-93673000D01*
X111373000Y-93673000D01*
X111373000Y-92707266D01*
X111202062Y-92580732D01*
X110828179Y-92764448D01*
X110617000Y-93002602D01*
X110617000Y-92189236D01*
X110950946Y-91855289D01*
X110989235Y-91893645D01*
X111406244Y-92066803D01*
X111857775Y-92067197D01*
X112275086Y-91894767D01*
X112594645Y-91575765D01*
X112767803Y-91158756D01*
X112768197Y-90707225D01*
X112595767Y-90289914D01*
X112276765Y-89970355D01*
X111859756Y-89797197D01*
X111408225Y-89796803D01*
X111135284Y-89909580D01*
X111135284Y-88176205D01*
X110886894Y-87575057D01*
X110427363Y-87114722D01*
X109826648Y-86865284D01*
X109176205Y-86864716D01*
X108575057Y-87113106D01*
X108114722Y-87572637D01*
X107865284Y-88173352D01*
X107864716Y-88823795D01*
X108113106Y-89424943D01*
X108572637Y-89885278D01*
X109173352Y-90134716D01*
X109823795Y-90135284D01*
X110424943Y-89886894D01*
X110885278Y-89427363D01*
X111134716Y-88826648D01*
X111135284Y-88176205D01*
X111135284Y-89909580D01*
X110990914Y-89969233D01*
X110917018Y-90043000D01*
X110617000Y-90043000D01*
X110276794Y-90110671D01*
X109988382Y-90303382D01*
X109099382Y-91192382D01*
X108906671Y-91480794D01*
X108839000Y-91821000D01*
X108839000Y-100076000D01*
X108906671Y-100416206D01*
X109099382Y-100704618D01*
X109988382Y-101593618D01*
X110276794Y-101786329D01*
X110276795Y-101786329D01*
X110617000Y-101854000D01*
X112903000Y-101854000D01*
X113243205Y-101786329D01*
X113243206Y-101786329D01*
X113531618Y-101593618D01*
X113804124Y-101321111D01*
X114180086Y-101165767D01*
X114499645Y-100846765D01*
X114672803Y-100429756D01*
X114673197Y-99978225D01*
X114673197Y-105315000D01*
X111135284Y-105315000D01*
X111135284Y-103176205D01*
X110886894Y-102575057D01*
X110427363Y-102114722D01*
X109826648Y-101865284D01*
X109176205Y-101864716D01*
X108575057Y-102113106D01*
X108114722Y-102572637D01*
X107865284Y-103173352D01*
X107864716Y-103823795D01*
X108113106Y-104424943D01*
X108572637Y-104885278D01*
X109173352Y-105134716D01*
X109823795Y-105135284D01*
X110424943Y-104886894D01*
X110885278Y-104427363D01*
X111134716Y-103826648D01*
X111135284Y-103176205D01*
X111135284Y-105315000D01*
X110067467Y-105315000D01*
X108736539Y-105050261D01*
X107665429Y-104334568D01*
X106949737Y-103263459D01*
X106685000Y-101932532D01*
X106685000Y-90067467D01*
X106949737Y-88736540D01*
X107665429Y-87665431D01*
X108736539Y-86949738D01*
X110067467Y-86685000D01*
X121263962Y-86685000D01*
X120484481Y-87464481D01*
X120303649Y-87735114D01*
X116217764Y-91821000D01*
X114681000Y-91821000D01*
X113792000Y-91821000D01*
X113750851Y-91829184D01*
X113313225Y-91828803D01*
X112895914Y-92001233D01*
X112576355Y-92320235D01*
X112403197Y-92737244D01*
X112402945Y-93025096D01*
X112171821Y-92764448D01*
X111797938Y-92580732D01*
X111627000Y-92707266D01*
X111627000Y-93673000D01*
X112452563Y-93673000D01*
X112553857Y-93554354D01*
X112575233Y-93606086D01*
X112894235Y-93925645D01*
X113311244Y-94098803D01*
X113762775Y-94099197D01*
X114180086Y-93926767D01*
X114499645Y-93607765D01*
X114503284Y-93599000D01*
X114681000Y-93599000D01*
X116586000Y-93599000D01*
X116926205Y-93531329D01*
X116926206Y-93531329D01*
X117214618Y-93338618D01*
X120205500Y-90347736D01*
X120205500Y-93585461D01*
X117817481Y-95973481D01*
X117611005Y-96282494D01*
X117538500Y-96647000D01*
X117538500Y-99441000D01*
X117611005Y-99805506D01*
X117817481Y-100114519D01*
X119768814Y-102065852D01*
X119768803Y-102078775D01*
X119941233Y-102496086D01*
X120260235Y-102815645D01*
X120677244Y-102988803D01*
X120781658Y-102988894D01*
X122561382Y-104768618D01*
X122849794Y-104961329D01*
X122849795Y-104961329D01*
X123190000Y-105029000D01*
X131744716Y-105029000D01*
X131817235Y-105101645D01*
X132234244Y-105274803D01*
X132685775Y-105275197D01*
X133103086Y-105102767D01*
X133422645Y-104783765D01*
X133595803Y-104366756D01*
X133596197Y-103915225D01*
X133423767Y-103497914D01*
X133104765Y-103178355D01*
X132687756Y-103005197D01*
X132236225Y-103004803D01*
X131818914Y-103177233D01*
X131745018Y-103251000D01*
X123558236Y-103251000D01*
X122039107Y-101731871D01*
X122039197Y-101629225D01*
X121866767Y-101211914D01*
X121793000Y-101138018D01*
X121793000Y-99936236D01*
X123177236Y-98552000D01*
X123318765Y-98552000D01*
X123114034Y-99045049D01*
X123113566Y-99580601D01*
X123318081Y-100075565D01*
X123696443Y-100454588D01*
X124191049Y-100659966D01*
X124726601Y-100660434D01*
X125221565Y-100455919D01*
X125600588Y-100077557D01*
X125805966Y-99582951D01*
X125806434Y-99047399D01*
X125601919Y-98552435D01*
X125601484Y-98552000D01*
X129044764Y-98552000D01*
X130308382Y-99815618D01*
X130596794Y-100008329D01*
X130937000Y-100076000D01*
X133776716Y-100076000D01*
X133849235Y-100148645D01*
X134266244Y-100321803D01*
X134717775Y-100322197D01*
X135135086Y-100149767D01*
X135229133Y-100055883D01*
X135468205Y-100008329D01*
X135468206Y-100008329D01*
X135756618Y-99815618D01*
X137790128Y-97782107D01*
X137892775Y-97782197D01*
X138074400Y-97707150D01*
X138074400Y-101493582D01*
X137849355Y-101718235D01*
X137676197Y-102135244D01*
X137675803Y-102586775D01*
X137848233Y-103004086D01*
X138167235Y-103323645D01*
X138584244Y-103496803D01*
X139035775Y-103497197D01*
X139202044Y-103428495D01*
X139259671Y-103718206D01*
X139278147Y-103745858D01*
X139318337Y-103947906D01*
X139497283Y-104215717D01*
X140596566Y-105315000D01*
X140596566Y-105315000D01*
G37*
X140596566Y-105315000D02*
X114673197Y-105315000D01*
X114673197Y-99978225D01*
X114500767Y-99560914D01*
X114181765Y-99241355D01*
X113764756Y-99068197D01*
X113313225Y-99067803D01*
X112895914Y-99240233D01*
X112601229Y-99534404D01*
X112601229Y-99101131D01*
X112601229Y-98498869D01*
X112601229Y-94101131D01*
X112452563Y-93927000D01*
X111627000Y-93927000D01*
X111627000Y-94892734D01*
X111797938Y-95019268D01*
X112171821Y-94835552D01*
X112459568Y-94511049D01*
X112601229Y-94101131D01*
X112601229Y-98498869D01*
X112459568Y-98088951D01*
X112171821Y-97764448D01*
X111797938Y-97580732D01*
X111627000Y-97707266D01*
X111627000Y-98673000D01*
X112452563Y-98673000D01*
X112601229Y-98498869D01*
X112601229Y-99101131D01*
X112452563Y-98927000D01*
X111627000Y-98927000D01*
X111627000Y-99892734D01*
X111797938Y-100019268D01*
X112171821Y-99835552D01*
X112459568Y-99511049D01*
X112601229Y-99101131D01*
X112601229Y-99534404D01*
X112576355Y-99559235D01*
X112403197Y-99976244D01*
X112403109Y-100076000D01*
X110985236Y-100076000D01*
X110617000Y-99707764D01*
X110617000Y-99597397D01*
X110828179Y-99835552D01*
X111202062Y-100019268D01*
X111373000Y-99892734D01*
X111373000Y-98927000D01*
X111353000Y-98927000D01*
X111353000Y-98673000D01*
X111373000Y-98673000D01*
X111373000Y-97707266D01*
X111202062Y-97580732D01*
X110828179Y-97764448D01*
X110617000Y-98002602D01*
X110617000Y-94597397D01*
X110828179Y-94835552D01*
X111202062Y-95019268D01*
X111373000Y-94892734D01*
X111373000Y-93927000D01*
X111353000Y-93927000D01*
X111353000Y-93673000D01*
X111373000Y-93673000D01*
X111373000Y-92707266D01*
X111202062Y-92580732D01*
X110828179Y-92764448D01*
X110617000Y-93002602D01*
X110617000Y-92189236D01*
X110950946Y-91855289D01*
X110989235Y-91893645D01*
X111406244Y-92066803D01*
X111857775Y-92067197D01*
X112275086Y-91894767D01*
X112594645Y-91575765D01*
X112767803Y-91158756D01*
X112768197Y-90707225D01*
X112595767Y-90289914D01*
X112276765Y-89970355D01*
X111859756Y-89797197D01*
X111408225Y-89796803D01*
X111135284Y-89909580D01*
X111135284Y-88176205D01*
X110886894Y-87575057D01*
X110427363Y-87114722D01*
X109826648Y-86865284D01*
X109176205Y-86864716D01*
X108575057Y-87113106D01*
X108114722Y-87572637D01*
X107865284Y-88173352D01*
X107864716Y-88823795D01*
X108113106Y-89424943D01*
X108572637Y-89885278D01*
X109173352Y-90134716D01*
X109823795Y-90135284D01*
X110424943Y-89886894D01*
X110885278Y-89427363D01*
X111134716Y-88826648D01*
X111135284Y-88176205D01*
X111135284Y-89909580D01*
X110990914Y-89969233D01*
X110917018Y-90043000D01*
X110617000Y-90043000D01*
X110276794Y-90110671D01*
X109988382Y-90303382D01*
X109099382Y-91192382D01*
X108906671Y-91480794D01*
X108839000Y-91821000D01*
X108839000Y-100076000D01*
X108906671Y-100416206D01*
X109099382Y-100704618D01*
X109988382Y-101593618D01*
X110276794Y-101786329D01*
X110276795Y-101786329D01*
X110617000Y-101854000D01*
X112903000Y-101854000D01*
X113243205Y-101786329D01*
X113243206Y-101786329D01*
X113531618Y-101593618D01*
X113804124Y-101321111D01*
X114180086Y-101165767D01*
X114499645Y-100846765D01*
X114672803Y-100429756D01*
X114673197Y-99978225D01*
X114673197Y-105315000D01*
X111135284Y-105315000D01*
X111135284Y-103176205D01*
X110886894Y-102575057D01*
X110427363Y-102114722D01*
X109826648Y-101865284D01*
X109176205Y-101864716D01*
X108575057Y-102113106D01*
X108114722Y-102572637D01*
X107865284Y-103173352D01*
X107864716Y-103823795D01*
X108113106Y-104424943D01*
X108572637Y-104885278D01*
X109173352Y-105134716D01*
X109823795Y-105135284D01*
X110424943Y-104886894D01*
X110885278Y-104427363D01*
X111134716Y-103826648D01*
X111135284Y-103176205D01*
X111135284Y-105315000D01*
X110067467Y-105315000D01*
X108736539Y-105050261D01*
X107665429Y-104334568D01*
X106949737Y-103263459D01*
X106685000Y-101932532D01*
X106685000Y-90067467D01*
X106949737Y-88736540D01*
X107665429Y-87665431D01*
X108736539Y-86949738D01*
X110067467Y-86685000D01*
X121263962Y-86685000D01*
X120484481Y-87464481D01*
X120303649Y-87735114D01*
X116217764Y-91821000D01*
X114681000Y-91821000D01*
X113792000Y-91821000D01*
X113750851Y-91829184D01*
X113313225Y-91828803D01*
X112895914Y-92001233D01*
X112576355Y-92320235D01*
X112403197Y-92737244D01*
X112402945Y-93025096D01*
X112171821Y-92764448D01*
X111797938Y-92580732D01*
X111627000Y-92707266D01*
X111627000Y-93673000D01*
X112452563Y-93673000D01*
X112553857Y-93554354D01*
X112575233Y-93606086D01*
X112894235Y-93925645D01*
X113311244Y-94098803D01*
X113762775Y-94099197D01*
X114180086Y-93926767D01*
X114499645Y-93607765D01*
X114503284Y-93599000D01*
X114681000Y-93599000D01*
X116586000Y-93599000D01*
X116926205Y-93531329D01*
X116926206Y-93531329D01*
X117214618Y-93338618D01*
X120205500Y-90347736D01*
X120205500Y-93585461D01*
X117817481Y-95973481D01*
X117611005Y-96282494D01*
X117538500Y-96647000D01*
X117538500Y-99441000D01*
X117611005Y-99805506D01*
X117817481Y-100114519D01*
X119768814Y-102065852D01*
X119768803Y-102078775D01*
X119941233Y-102496086D01*
X120260235Y-102815645D01*
X120677244Y-102988803D01*
X120781658Y-102988894D01*
X122561382Y-104768618D01*
X122849794Y-104961329D01*
X122849795Y-104961329D01*
X123190000Y-105029000D01*
X131744716Y-105029000D01*
X131817235Y-105101645D01*
X132234244Y-105274803D01*
X132685775Y-105275197D01*
X133103086Y-105102767D01*
X133422645Y-104783765D01*
X133595803Y-104366756D01*
X133596197Y-103915225D01*
X133423767Y-103497914D01*
X133104765Y-103178355D01*
X132687756Y-103005197D01*
X132236225Y-103004803D01*
X131818914Y-103177233D01*
X131745018Y-103251000D01*
X123558236Y-103251000D01*
X122039107Y-101731871D01*
X122039197Y-101629225D01*
X121866767Y-101211914D01*
X121793000Y-101138018D01*
X121793000Y-99936236D01*
X123177236Y-98552000D01*
X123318765Y-98552000D01*
X123114034Y-99045049D01*
X123113566Y-99580601D01*
X123318081Y-100075565D01*
X123696443Y-100454588D01*
X124191049Y-100659966D01*
X124726601Y-100660434D01*
X125221565Y-100455919D01*
X125600588Y-100077557D01*
X125805966Y-99582951D01*
X125806434Y-99047399D01*
X125601919Y-98552435D01*
X125601484Y-98552000D01*
X129044764Y-98552000D01*
X130308382Y-99815618D01*
X130596794Y-100008329D01*
X130937000Y-100076000D01*
X133776716Y-100076000D01*
X133849235Y-100148645D01*
X134266244Y-100321803D01*
X134717775Y-100322197D01*
X135135086Y-100149767D01*
X135229133Y-100055883D01*
X135468205Y-100008329D01*
X135468206Y-100008329D01*
X135756618Y-99815618D01*
X137790128Y-97782107D01*
X137892775Y-97782197D01*
X138074400Y-97707150D01*
X138074400Y-101493582D01*
X137849355Y-101718235D01*
X137676197Y-102135244D01*
X137675803Y-102586775D01*
X137848233Y-103004086D01*
X138167235Y-103323645D01*
X138584244Y-103496803D01*
X139035775Y-103497197D01*
X139202044Y-103428495D01*
X139259671Y-103718206D01*
X139278147Y-103745858D01*
X139318337Y-103947906D01*
X139497283Y-104215717D01*
X140596566Y-105315000D01*
G36*
X143842994Y-94707189D02*
X143629914Y-94795233D01*
X143310355Y-95114235D01*
X143137197Y-95531244D01*
X143136803Y-95982775D01*
X143309233Y-96400086D01*
X143559246Y-96650536D01*
X143391197Y-97055244D01*
X143390803Y-97506775D01*
X143485566Y-97736118D01*
X141645761Y-99575923D01*
X141507225Y-99575803D01*
X141089914Y-99748233D01*
X140970000Y-99867937D01*
X140970000Y-93980000D01*
X140902329Y-93639794D01*
X140709618Y-93351382D01*
X137846304Y-90488068D01*
X137557892Y-90295357D01*
X137217686Y-90227686D01*
X132886922Y-90227686D01*
X132834107Y-90174871D01*
X132834197Y-90072225D01*
X132664694Y-89662000D01*
X138569764Y-89662000D01*
X142246382Y-93338618D01*
X143389382Y-94481618D01*
X143677794Y-94674329D01*
X143677795Y-94674329D01*
X143842994Y-94707189D01*
X143842994Y-94707189D01*
G37*
X143842994Y-94707189D02*
X143629914Y-94795233D01*
X143310355Y-95114235D01*
X143137197Y-95531244D01*
X143136803Y-95982775D01*
X143309233Y-96400086D01*
X143559246Y-96650536D01*
X143391197Y-97055244D01*
X143390803Y-97506775D01*
X143485566Y-97736118D01*
X141645761Y-99575923D01*
X141507225Y-99575803D01*
X141089914Y-99748233D01*
X140970000Y-99867937D01*
X140970000Y-93980000D01*
X140902329Y-93639794D01*
X140709618Y-93351382D01*
X137846304Y-90488068D01*
X137557892Y-90295357D01*
X137217686Y-90227686D01*
X132886922Y-90227686D01*
X132834107Y-90174871D01*
X132834197Y-90072225D01*
X132664694Y-89662000D01*
X138569764Y-89662000D01*
X142246382Y-93338618D01*
X143389382Y-94481618D01*
X143677794Y-94674329D01*
X143677795Y-94674329D01*
X143842994Y-94707189D01*
G36*
X152315000Y-103796971D02*
X152086188Y-103298621D01*
X151613818Y-102860615D01*
X151131944Y-102661025D01*
X150876000Y-102780164D01*
X150876000Y-104140000D01*
X150896000Y-104140000D01*
X150896000Y-104394000D01*
X150876000Y-104394000D01*
X150876000Y-104414000D01*
X150622000Y-104414000D01*
X150622000Y-104394000D01*
X150602000Y-104394000D01*
X150602000Y-104140000D01*
X150622000Y-104140000D01*
X150622000Y-102780164D01*
X150495000Y-102721046D01*
X150495000Y-102422250D01*
X150495000Y-101473000D01*
X150495000Y-101219000D01*
X150495000Y-100269750D01*
X150495000Y-99882250D01*
X150495000Y-98933000D01*
X150495000Y-98679000D01*
X150495000Y-97729750D01*
X150336250Y-97571000D01*
X148995691Y-97571000D01*
X148762302Y-97667673D01*
X148583673Y-97846301D01*
X148487000Y-98079690D01*
X148487000Y-98332309D01*
X148487000Y-98520250D01*
X148645750Y-98679000D01*
X150495000Y-98679000D01*
X150495000Y-98933000D01*
X148645750Y-98933000D01*
X148487000Y-99091750D01*
X148487000Y-99279691D01*
X148487000Y-99532310D01*
X148583673Y-99765699D01*
X148762302Y-99944327D01*
X148995691Y-100041000D01*
X150336250Y-100041000D01*
X150495000Y-99882250D01*
X150495000Y-100269750D01*
X150336250Y-100111000D01*
X148995691Y-100111000D01*
X148762302Y-100207673D01*
X148583673Y-100386301D01*
X148487000Y-100619690D01*
X148487000Y-100872309D01*
X148487000Y-101060250D01*
X148645750Y-101219000D01*
X150495000Y-101219000D01*
X150495000Y-101473000D01*
X148645750Y-101473000D01*
X148487000Y-101631750D01*
X148487000Y-101819691D01*
X148487000Y-102072310D01*
X148583673Y-102305699D01*
X148762302Y-102484327D01*
X148995691Y-102581000D01*
X150336250Y-102581000D01*
X150495000Y-102422250D01*
X150495000Y-102721046D01*
X150366056Y-102661025D01*
X149884182Y-102860615D01*
X149787164Y-102950574D01*
X149685673Y-102796073D01*
X149474640Y-102653623D01*
X149225000Y-102603560D01*
X147193000Y-102603560D01*
X146950877Y-102650537D01*
X146738073Y-102790327D01*
X146595623Y-103001360D01*
X146545560Y-103251000D01*
X146545560Y-103441500D01*
X146304005Y-103441500D01*
X146304000Y-103441499D01*
X145988094Y-103504337D01*
X145720283Y-103683283D01*
X144946066Y-104457500D01*
X144355088Y-104457500D01*
X144385278Y-104427363D01*
X144634716Y-103826648D01*
X144635284Y-103176205D01*
X144386894Y-102575057D01*
X143927363Y-102114722D01*
X143326648Y-101865284D01*
X142676205Y-101864716D01*
X142075057Y-102113106D01*
X141614722Y-102572637D01*
X141365284Y-103173352D01*
X141364781Y-103748348D01*
X140970000Y-103353566D01*
X140970000Y-103251000D01*
X140970000Y-101554203D01*
X141088235Y-101672645D01*
X141505244Y-101845803D01*
X141956775Y-101846197D01*
X142374086Y-101673767D01*
X142693645Y-101354765D01*
X142866803Y-100937756D01*
X142866925Y-100797388D01*
X145136657Y-98527657D01*
X145136658Y-98527657D01*
X145249900Y-98358177D01*
X145249900Y-100647500D01*
X145296073Y-100879627D01*
X145296073Y-100879628D01*
X145295803Y-101189775D01*
X145468233Y-101607086D01*
X145787235Y-101926645D01*
X146204244Y-102099803D01*
X146655775Y-102100197D01*
X147073086Y-101927767D01*
X147392645Y-101608765D01*
X147565803Y-101191756D01*
X147566197Y-100740225D01*
X147393767Y-100322914D01*
X147074765Y-100003355D01*
X146977100Y-99962800D01*
X146977100Y-97155694D01*
X147002500Y-97028000D01*
X147002500Y-96583500D01*
X146934829Y-96243294D01*
X146742118Y-95954882D01*
X145916618Y-95129382D01*
X145628206Y-94936671D01*
X145288000Y-94869000D01*
X144988283Y-94869000D01*
X144915765Y-94796355D01*
X144784864Y-94742000D01*
X146570764Y-94742000D01*
X148474560Y-96645796D01*
X148474560Y-96866000D01*
X148521537Y-97108123D01*
X148661327Y-97320927D01*
X148872360Y-97463377D01*
X149122000Y-97513440D01*
X152122000Y-97513440D01*
X152315000Y-97475993D01*
X152315000Y-97598624D01*
X152248309Y-97571000D01*
X150907750Y-97571000D01*
X150749000Y-97729750D01*
X150749000Y-98679000D01*
X150769000Y-98679000D01*
X150769000Y-98933000D01*
X150749000Y-98933000D01*
X150749000Y-99882250D01*
X150907750Y-100041000D01*
X152248309Y-100041000D01*
X152315000Y-100013375D01*
X152315000Y-100138624D01*
X152248309Y-100111000D01*
X150907750Y-100111000D01*
X150749000Y-100269750D01*
X150749000Y-101219000D01*
X150769000Y-101219000D01*
X150769000Y-101473000D01*
X150749000Y-101473000D01*
X150749000Y-102422250D01*
X150907750Y-102581000D01*
X152248309Y-102581000D01*
X152315000Y-102553375D01*
X152315000Y-103796971D01*
X152315000Y-103796971D01*
G37*
X152315000Y-103796971D02*
X152086188Y-103298621D01*
X151613818Y-102860615D01*
X151131944Y-102661025D01*
X150876000Y-102780164D01*
X150876000Y-104140000D01*
X150896000Y-104140000D01*
X150896000Y-104394000D01*
X150876000Y-104394000D01*
X150876000Y-104414000D01*
X150622000Y-104414000D01*
X150622000Y-104394000D01*
X150602000Y-104394000D01*
X150602000Y-104140000D01*
X150622000Y-104140000D01*
X150622000Y-102780164D01*
X150495000Y-102721046D01*
X150495000Y-102422250D01*
X150495000Y-101473000D01*
X150495000Y-101219000D01*
X150495000Y-100269750D01*
X150495000Y-99882250D01*
X150495000Y-98933000D01*
X150495000Y-98679000D01*
X150495000Y-97729750D01*
X150336250Y-97571000D01*
X148995691Y-97571000D01*
X148762302Y-97667673D01*
X148583673Y-97846301D01*
X148487000Y-98079690D01*
X148487000Y-98332309D01*
X148487000Y-98520250D01*
X148645750Y-98679000D01*
X150495000Y-98679000D01*
X150495000Y-98933000D01*
X148645750Y-98933000D01*
X148487000Y-99091750D01*
X148487000Y-99279691D01*
X148487000Y-99532310D01*
X148583673Y-99765699D01*
X148762302Y-99944327D01*
X148995691Y-100041000D01*
X150336250Y-100041000D01*
X150495000Y-99882250D01*
X150495000Y-100269750D01*
X150336250Y-100111000D01*
X148995691Y-100111000D01*
X148762302Y-100207673D01*
X148583673Y-100386301D01*
X148487000Y-100619690D01*
X148487000Y-100872309D01*
X148487000Y-101060250D01*
X148645750Y-101219000D01*
X150495000Y-101219000D01*
X150495000Y-101473000D01*
X148645750Y-101473000D01*
X148487000Y-101631750D01*
X148487000Y-101819691D01*
X148487000Y-102072310D01*
X148583673Y-102305699D01*
X148762302Y-102484327D01*
X148995691Y-102581000D01*
X150336250Y-102581000D01*
X150495000Y-102422250D01*
X150495000Y-102721046D01*
X150366056Y-102661025D01*
X149884182Y-102860615D01*
X149787164Y-102950574D01*
X149685673Y-102796073D01*
X149474640Y-102653623D01*
X149225000Y-102603560D01*
X147193000Y-102603560D01*
X146950877Y-102650537D01*
X146738073Y-102790327D01*
X146595623Y-103001360D01*
X146545560Y-103251000D01*
X146545560Y-103441500D01*
X146304005Y-103441500D01*
X146304000Y-103441499D01*
X145988094Y-103504337D01*
X145720283Y-103683283D01*
X144946066Y-104457500D01*
X144355088Y-104457500D01*
X144385278Y-104427363D01*
X144634716Y-103826648D01*
X144635284Y-103176205D01*
X144386894Y-102575057D01*
X143927363Y-102114722D01*
X143326648Y-101865284D01*
X142676205Y-101864716D01*
X142075057Y-102113106D01*
X141614722Y-102572637D01*
X141365284Y-103173352D01*
X141364781Y-103748348D01*
X140970000Y-103353566D01*
X140970000Y-103251000D01*
X140970000Y-101554203D01*
X141088235Y-101672645D01*
X141505244Y-101845803D01*
X141956775Y-101846197D01*
X142374086Y-101673767D01*
X142693645Y-101354765D01*
X142866803Y-100937756D01*
X142866925Y-100797388D01*
X145136657Y-98527657D01*
X145136658Y-98527657D01*
X145249900Y-98358177D01*
X145249900Y-100647500D01*
X145296073Y-100879627D01*
X145296073Y-100879628D01*
X145295803Y-101189775D01*
X145468233Y-101607086D01*
X145787235Y-101926645D01*
X146204244Y-102099803D01*
X146655775Y-102100197D01*
X147073086Y-101927767D01*
X147392645Y-101608765D01*
X147565803Y-101191756D01*
X147566197Y-100740225D01*
X147393767Y-100322914D01*
X147074765Y-100003355D01*
X146977100Y-99962800D01*
X146977100Y-97155694D01*
X147002500Y-97028000D01*
X147002500Y-96583500D01*
X146934829Y-96243294D01*
X146742118Y-95954882D01*
X145916618Y-95129382D01*
X145628206Y-94936671D01*
X145288000Y-94869000D01*
X144988283Y-94869000D01*
X144915765Y-94796355D01*
X144784864Y-94742000D01*
X146570764Y-94742000D01*
X148474560Y-96645796D01*
X148474560Y-96866000D01*
X148521537Y-97108123D01*
X148661327Y-97320927D01*
X148872360Y-97463377D01*
X149122000Y-97513440D01*
X152122000Y-97513440D01*
X152315000Y-97475993D01*
X152315000Y-97598624D01*
X152248309Y-97571000D01*
X150907750Y-97571000D01*
X150749000Y-97729750D01*
X150749000Y-98679000D01*
X150769000Y-98679000D01*
X150769000Y-98933000D01*
X150749000Y-98933000D01*
X150749000Y-99882250D01*
X150907750Y-100041000D01*
X152248309Y-100041000D01*
X152315000Y-100013375D01*
X152315000Y-100138624D01*
X152248309Y-100111000D01*
X150907750Y-100111000D01*
X150749000Y-100269750D01*
X150749000Y-101219000D01*
X150769000Y-101219000D01*
X150769000Y-101473000D01*
X150749000Y-101473000D01*
X150749000Y-102422250D01*
X150907750Y-102581000D01*
X152248309Y-102581000D01*
X152315000Y-102553375D01*
X152315000Y-103796971D01*
M02*
