M48
;DRILL file {kicad (2015-01-16 BZR 5376)-product} date 9/24/2015 9:19:42 AM
;FORMAT={-:-/ absolute / metric / decimal}
FMAT,2
METRIC,TZ
T1C0.550
T2C0.750
T3C0.762
T4C1.016
T5C2.000
%
G90
G05
M71
T1
X111.633Y-90.932
X113.538Y-92.964
X113.538Y-100.203
X119.761Y-93.091
X120.65Y-96.52
X120.904Y-101.854
X122.301Y-93.345
X122.428Y-86.868
X125.095Y-92.456
X125.984Y-102.235
X126.492Y-92.202
X127.635Y-91.059
X128.524Y-99.06
X129.032Y-89.281
X131.699Y-90.297
X131.826Y-95.504
X132.461Y-104.14
X133.604Y-86.995
X134.112Y-93.98
X134.493Y-99.187
X134.874Y-96.139
X134.874Y-97.536
X137.668Y-96.647
X138.811Y-102.362
X139.954Y-91.44
X141.732Y-100.711
X144.272Y-95.758
X144.526Y-97.282
X146.431Y-100.965
X146.685Y-92.202
X147.574Y-91.186
T3
X124.46Y-94.234
X124.46Y-99.314
T4
X148.209Y-104.267
X148.336Y-88.138
X150.749Y-104.267
X150.876Y-88.138
T5
X109.5Y-88.5
X109.5Y-103.5
X143.Y-88.5
X143.Y-103.5
T2
X111.5Y-93.75G85X111.5Y-93.85
G05
X111.5Y-98.75G85X111.5Y-98.85
G05
T0
M30
